<svg cache-id="323f48e34a6c4ac1a70f530e7fb633a2" id="eAMFUpbS1PV1" xmlns="http://www.w3.org/2000/svg" xmlns:xlink="http://www.w3.org/1999/xlink" viewBox="0 0 1920 1920" shape-rendering="geometricPrecision" text-rendering="geometricPrecision"><g transform="matrix(1.67563 0 0 1.568499-651.114949-529.745335)"><path d="M568.13,0.012L392,176.142l783.864,783.989L392,1743.87L568.13,1920l960.118-959.87Z" transform="matrix(.25 0 0 0.25 344.443347 691.83011)" fill="#8932df" fill-rule="evenodd"/><path d="M568.13,0.012L392,176.142l783.864,783.989L392,1743.87L568.13,1920l960.118-959.87Z" transform="matrix(.25 0 0 0.25 597.288189 691.83011)" fill="#8932df" fill-opacity="0.8" fill-rule="evenodd"/><path d="M568.13,0.012L392,176.142l783.864,783.989L392,1743.87L568.13,1920l960.118-959.87Z" transform="matrix(.25 0 0 0.25 858.784595 691.83011)" fill="#8932df" fill-opacity="0.6" fill-rule="evenodd"/><path d="M568.13,0.012L392,176.142l783.864,783.989L392,1743.87L568.13,1920l960.118-959.87Z" transform="matrix(.25 0 0 0.25 1102.92522 691.83011)" fill="#8932df" fill-opacity="0.2" fill-rule="evenodd"/></g></svg>
